<?xml version="1.0" encoding="utf-8"?>
<!-- Generator: Adobe Illustrator 23.1.0, SVG Export Plug-In . SVG Version: 6.00 Build 0)  -->
<svg version="1.1" id="Layer_1" xmlns="http://www.w3.org/2000/svg" xmlns:xlink="http://www.w3.org/1999/xlink" x="0px" y="0px"
	 viewBox="0 0 100 100.3" style="enable-background:new 0 0 100 100.3;" xml:space="preserve">
<style type="text/css">
	.st0{fill:#FFFFFF;}
</style>
<g>
	<path class="st0" d="M59.3,46.1c1.2,0,2.3-0.5,3.5-1.3l1.9-2.7l3.1-4.4l4.7-6.6l3.9-6.4l0.2-0.3c1.1-1.7,2.5-4.8,0-6.1
		c-2.1-0.9-3.7-1.4-5.2,0.2l-17,24.1C54.9,44.4,57.5,46.2,59.3,46.1z"/>
	<path class="st0" d="M65.4,48.3c-0.1,0.2-0.1,0.4-0.2,0.6c-0.5,2.9,3.4,3.8,5.2,3.5c3.1-0.6,5.7-3.2,8-6c1.6-2,7.3-9.5,5.1-13.9
		c-1.2-2.5-4.1-3.4-5.6-1.9L65.4,48.3z"/>
	<path class="st0" d="M51.6,2.4c-6.4-1.2-9.4,6.5-12.2,11.1l9.6,4.4C52.4,13.3,60.1,5.3,51.6,2.4z"/>
	<path class="st0" d="M52.9,19.5c0.8,0.4,1.4,0.7,2,1l1.6,0.7l2.2,1L58,23.8c-2.1,5.2-6.6,10.9-13.2,9c-1,3.2,1.9,3.3,4,4.3
		c1.6,0.3,2.8,1.8,5.6-1.5l2-2.5c0.1-0.2,0.3-0.4,0.4-0.7c-0.1,0.2-0.3,0.5-0.4,0.7l4.7-6.6c0,0,0,0,0,0l5.9-8.4
		c0.8-1.3,1.4-2.2,1.9-3.5c1.4-2.3,1.3-4.8-1.8-6.4c-2-1-4.8-1.3-6.6,0.8l-6.6,9.3L52.9,19.5z"/>
	<path class="st0" d="M69.4,55.6c-4.4-0.3-6.8-0.9-7-6.1c-2.1,0.3-6.7,0.8-8.5-2.8c0.5,2.6,2.5,17.6-0.1,17.8c-3.2-0.1-2.8-9-2.9-11
		c-0.2-9.8-3.8-15.3-14-18.3c1.1-1.6,1.3-2,4.3-5.9c5.5,2.3,10.1-0.2,12.4-4.8l-2.1-1l-4.9-2.2l-7.4-3.3L35.1,16
		c-0.5-0.1-1-0.2-1.5-0.2c-2.2-0.3-9.1,10.4-10.9,13c-2.8,4-6.1,9.7-6.4,12.6c-0.4,5.1,5,10.9,7.8,15.5c2.7,4.7,7.3,10.4,8.2,15.1
		c1.6,8.4,0.7,14.9,0.1,24.7h33.6c-0.7-6.5-1.4-14.5,0.1-18.9c1.3-3.8,3.1-5.5,7.4-7.8c2.8-1.4,4.4-5.5,5.3-9.2
		c1.1-4.1,1.1-4.4,2.3-11.7C78,52.3,74.8,56,69.4,55.6z"/>
</g>
</svg>
