<?xml version="1.0" encoding="utf-8"?>
<!-- Generator: Adobe Illustrator 24.0.0, SVG Export Plug-In . SVG Version: 6.00 Build 0)  -->
<svg version="1.1" id="Layer_1" xmlns="http://www.w3.org/2000/svg" xmlns:xlink="http://www.w3.org/1999/xlink" x="0px" y="0px"
	 viewBox="0 0 100 97.7" style="enable-background:new 0 0 100 97.7;" xml:space="preserve">
<style type="text/css">
	.st0{fill:none;stroke:#FFFFFF;stroke-width:6;stroke-miterlimit:10;}
	.st1{fill:#FFFFFF;}
</style>
<g>
	<path class="st0" d="M43.5,73.2"/>
	<path class="st1" d="M76.2,65.2c-0.8,0.8-1.9,1.2-3,1.2c-0.8,0-1.5-0.2-2.2-0.6c0.3,1.3-0.1,2.8-1.1,3.8c-0.8,0.8-1.9,1.2-3,1.2
		c-1,0-2-0.3-2.7-1c0.2,1.3-0.2,2.7-1.2,3.7c-0.8,0.8-1.9,1.2-3,1.2c-0.7,0-1.4-0.2-2.1-0.5c0,0.5-0.1,0.9-0.3,1.4s-0.5,1-1,1.5
		c-0.1,0.1-0.2,0.2-0.3,0.2c0,0,0,0-0.1,0c-0.7,0.6-1.7,1-2.7,1c-0.7,0-1.4-0.2-2-0.5l-1.4-1l3.3-4.1c3-3.7,1-7.2-1.4-9.2l0,0l0,0
		c-1.4-1.1-3.1-1.5-4.7-1.2c0-1.6-0.6-3.3-2-4.4l0,0l0,0c-1.4-1.1-3.1-1.5-4.7-1.2c0-1.6-0.6-3.3-2-4.4l0,0l0,0
		c-1.4-1.1-3.1-1.5-4.7-1.2c0-1.6-0.6-3.3-2-4.4l0,0l0,0c-2.9-2.6-6.3-3.5-9.3-0.3l-4.8,5.9c-0.1,0.1-0.1,0.1-0.2,0.2l-0.2-0.1
		c-0.3-0.2-0.5-0.4-0.7-0.6c-1.7-1.4-7.2-5.2-9-6.6c-0.8-0.6-1-1.4-0.6-2.3c1.6-3.5,3.3-6.9,4.9-10.3c0.8-1.8,1.7-3.6,2.5-5.5
		c0.3-0.6,0.7-1,1.1-1.1c0.4-0.1,0.9,0,1.4,0.3c1.3,0.9,4.1,2.8,6.9,4.2c1.9,0.9,3.7,1.5,5.1,1.6c0.7,0.1,1.9,0,3.1-0.1
		c0.8-0.1,1.7-0.3,2.5-0.6c0.1,0,0.3-0.1,0.4-0.1c0.4-0.1,0.8-0.2,1.2-0.4c0.1,0,0.1,0,0.2-0.1c0.1,0,0.2-0.1,0.4-0.1
		c1.7-0.4,3.5-0.8,5.2-1.1l-5.3,5.3c-0.2,0.2-0.3,0.4-0.5,0.5c-0.2,0.2-0.4,0.5-0.5,0.6l0,0c-0.6,0.8-1,1.8-1.2,2.8v0.1
		c-0.3,2.1,0.3,4.4,1.7,6.4c1.5,2.1,3.7,3.5,5.9,3.8c0.7,0.1,1.4,0.2,2,0.2c2.9,0,5.6-0.9,7.9-2.7c1.1-0.9,2.3-1.9,3.5-2.8
		c0,0,0,0,0.1-0.1c0.3-0.3,0.6-0.5,0.9-0.8c0,0,0.1,0,0.1-0.1c0,0,0,0,0.1-0.1c0.3,0,0.5,0,0.8,0.1c0.4,0.1,0.8,0.2,1.2,0.5
		c0.3,0.2,0.6,0.4,0.9,0.7l0.6,0.6l0.4,0.4l0.1,0.1l1.5,1.5l1,1l1.7,1.8l1.3,1.3c0.1,0.1,0.1,0.1,0.2,0.2l9.5,8.2
		C77.8,60.9,77.8,63.6,76.2,65.2z"/>
	<g>
		<path class="st1" d="M92.7,40.1c-1.7,1.4-8.4,6.5-10.1,8c-1.1,1-2.9,2.4-4,3.4c-0.2,0.2-0.3,0.3-0.5,0.4l0,0
			C78,52,77.9,52,77.8,52.1c-0.2,0.1-0.3,0.1-0.5,0.1s-0.5-0.1-0.7-0.2l-2.4-2.3l0,0l0,0l-5.6-5.2c-0.1-0.1-0.2-0.2-0.3-0.3
			c-0.1-0.1-0.2-0.2-0.3-0.3l-2.6-2.4c-0.7-0.7-1.4-1.4-2.2-2.1c-0.3-0.2-0.5-0.5-0.8-0.7l-0.1-0.1c-0.1-0.1-0.2-0.2-0.3-0.3
			c0,0,0,0-0.1,0c-0.7-0.5-1.5-0.9-2.3-1.1c-0.4-0.1-0.9-0.2-1.4-0.2c-0.1,0-0.2,0-0.2,0c-1.2,0-2.3,0.4-3.2,1l0,0
			c-0.3,0.2-0.6,0.5-0.9,0.8c0,0-0.1,0-0.1,0.1c-0.3,0.3-0.7,0.5-1,0.8c-1.2,1-2.4,1.9-3.4,2.8c-0.1,0.1-0.1,0.1-0.2,0.1
			c-1.4,1-2.9,1.5-4.5,1.5c-0.4,0-0.9,0-1.3-0.1c-1.7-0.3-3.6-2.6-3.3-4.3c0-0.2,0.2-0.5,0.3-0.7c0.1-0.1,0.1-0.1,0.2-0.2
			c0.1-0.1,0.2-0.2,0.3-0.3l0.4-0.4l5-5c0.1-0.1,0.2-0.2,0.3-0.3c0.1-0.1,0.2-0.2,0.3-0.3l5.4-5.4l0,0l1.4-1.4l0.2-0.1
			c0.7-0.6,1.5-0.8,2.7-0.8c1.6,0,3.4,0.7,5.2,1.3c1.2,0.4,2.4,0.8,3.6,1.1c1.5,0.4,3.1,0.6,4.7,0.6c0.3,0,0.6,0,0.9,0
			c3.6-0.2,9.8-4.8,11.8-6.3c0.4-0.3,0.8-0.4,1.1-0.4c0.3,0,0.5,0.1,0.8,0.3c0.1,0.1,0.1,0.1,0.2,0.2c0.2,0.2,0.3,0.4,0.5,0.7
			c0.9,1.8,1.8,3.6,2.7,5.4c1.8,3.4,3.6,6.8,5.3,10.2C93.7,38.7,93.5,39.5,92.7,40.1z"/>
	</g>
	<g>
		<g>
			<path class="st1" d="M29.7,54.5l-4.8,5.8l-0.1,0.1c-1.1,1.3-3,1.5-4.3,0.4c-0.1-0.1-0.2-0.2-0.3-0.2c-0.2-0.2-0.4-0.5-0.6-0.8
				c0-0.1-0.1-0.2-0.1-0.3c0-0.2-0.1-0.3-0.1-0.5c0-0.1,0-0.2,0-0.2c0-0.1,0-0.1,0-0.2v-0.1c0,0,0-0.1,0-0.2s0-0.2,0-0.3
				c0-0.2,0.1-0.4,0.1-0.5c0.1-0.2,0.2-0.4,0.3-0.6c0-0.1,0.1-0.1,0.1-0.2c0,0,0-0.1,0.1-0.1l4.8-5.9c1.1-1.3,3-1.5,4.3-0.4l0,0
				c0.1,0.1,0.2,0.2,0.3,0.2s0.1,0.1,0.1,0.1c0.1,0.1,0.1,0.1,0.1,0.2c0.1,0.1,0.1,0.2,0.2,0.3c0,0.1,0.1,0.1,0.1,0.2
				c0.1,0.1,0.1,0.2,0.1,0.3c0,0.1,0.1,0.2,0.1,0.3C30.5,52.8,30.3,53.7,29.7,54.5z"/>
		</g>
		<g>
			<path class="st1" d="M36.4,60.1l-4.5,5.4l-0.4,0.4c-1.1,1.3-3,1.5-4.3,0.4l0,0c-0.1-0.1-0.2-0.2-0.3-0.2
				c-0.2-0.2-0.3-0.3-0.4-0.5c-0.1-0.2-0.2-0.4-0.3-0.6l0,0c0-0.1,0-0.2-0.1-0.2c0-0.1,0-0.2-0.1-0.2c0-0.1,0-0.2,0-0.2
				c0-0.1,0-0.2,0-0.3c0-0.1,0-0.2,0-0.2l0,0c0-0.1,0-0.1,0-0.2c0-0.2,0.1-0.3,0.1-0.5v-0.1c0.1-0.3,0.3-0.6,0.5-0.9l0.2-0.2
				l4.6-5.6c1.1-1.3,3-1.5,4.3-0.4l0,0c0.1,0.1,0.2,0.2,0.2,0.2l0,0c0.1,0.1,0.1,0.1,0.1,0.2c0.1,0.1,0.1,0.1,0.2,0.2
				c0.1,0.1,0.1,0.2,0.2,0.3c0.1,0.1,0.1,0.3,0.2,0.5c0,0.1,0.1,0.2,0.1,0.3C37.2,58.4,37,59.4,36.4,60.1z"/>
		</g>
		<g>
			<path class="st1" d="M43.8,63.9c0,0.1,0,0.2,0,0.3c0,0.1,0,0.2,0,0.3l0,0l0,0l0,0c0,0.1-0.1,0.2-0.1,0.4c0,0.1-0.1,0.2-0.1,0.2
				c-0.1,0.1-0.1,0.2-0.2,0.4c-0.1,0.1-0.2,0.2-0.2,0.3L39,70.9l-0.6,0.8c-1.1,1.3-3,1.5-4.3,0.4l0,0c-0.1-0.1-0.2-0.2-0.3-0.2
				c-0.3-0.3-0.5-0.7-0.7-1.1c0-0.1-0.1-0.2-0.1-0.3c-0.2-0.9,0-1.8,0.6-2.6l0.5-0.6l4.4-5.3c1.1-1.3,3-1.5,4.3-0.4l0,0
				c0.1,0.1,0.2,0.2,0.3,0.2c0.1,0.1,0.1,0.2,0.2,0.2c0.1,0.1,0.1,0.2,0.2,0.3c0.1,0.2,0.2,0.4,0.3,0.6l0,0c0,0.1,0.1,0.2,0.1,0.2
				c0,0.1,0,0.2,0,0.2C43.8,63.5,43.8,63.7,43.8,63.9z"/>
		</g>
		<g>
			<path class="st1" d="M50.5,69.4L50.5,69.4c0,0.1,0,0.2,0,0.3c0,0.1,0,0.2,0,0.3l0,0l0,0l0,0c0,0.1-0.1,0.2-0.1,0.4
				c0,0.1-0.1,0.2-0.1,0.2c-0.1,0.1-0.1,0.2-0.2,0.3c-0.1,0.1-0.2,0.2-0.2,0.3l-3.8,4.7l-1,1.2c-1.1,1.3-3,1.5-4.3,0.4l0,0
				c-0.1-0.1-0.2-0.2-0.3-0.2s-0.1-0.1-0.1-0.1c0-0.1-0.1-0.1-0.1-0.2c-0.1-0.1-0.1-0.2-0.2-0.3c0-0.1-0.1-0.1-0.1-0.2
				c-0.1-0.1-0.1-0.2-0.1-0.3c0-0.1-0.1-0.2-0.1-0.3c-0.2-0.9,0-1.8,0.6-2.6l0.8-0.9l4.1-5c1.1-1.3,3-1.5,4.3-0.4l0,0
				c0.1,0.1,0.2,0.2,0.3,0.2c0.1,0.1,0.2,0.2,0.2,0.3c0.1,0.1,0.1,0.1,0.1,0.2s0.1,0.1,0.1,0.2c0,0,0,0,0,0.1l0,0l0,0
				c0,0.1,0.1,0.1,0.1,0.2s0.1,0.1,0.1,0.2l0,0c0,0.1,0.1,0.2,0.1,0.2c0,0.1,0,0.2,0,0.2C50.5,69.1,50.5,69.3,50.5,69.4z"/>
		</g>
	</g>
</g>
</svg>
